<?xml version="1.0" encoding="utf-8"?>
<!-- Generator: Adobe Illustrator 25.3.0, SVG Export Plug-In . SVG Version: 6.00 Build 0)  -->
<svg version="1.1" xmlns="http://www.w3.org/2000/svg" xmlns:xlink="http://www.w3.org/1999/xlink" x="0px" y="0px"
	 viewBox="0 0 500 500" style="enable-background:new 0 0 500 500;" xml:space="preserve">
<style type="text/css">
	.st0{fill:#161616;stroke:#161616;stroke-miterlimit:10;}
	.st1{fill:#FFFFFF;stroke:#FFFFFF;stroke-miterlimit:10;}
</style>
<g id="Layer_1">
	<path class="st0" d="M7.7,6.4C13,1.7,18.8,0.6,21,0.3C174.8,0.2,328.5,0.1,482.3,0c1.6,0.2,7.9,1.4,12.7,7c5.4,6.2,5.1,13.4,5,14.9
		c0,153.8,0,307.6,0,461.3c-0.4,2-1.6,6.1-5,9.9c-3.9,4.5-8.5,6.2-10.5,6.8c-155.1,0-310.1,0-465.2,0c-1.7-0.2-8-0.9-13.3-6.3
		c-5.5-5.5-6-12.2-6.1-13.8c0-153,0-306.1,0-459.1C0.3,18.7,1.7,11.9,7.7,6.4z"/>
</g>
<g id="Layer_2">
	<g>
		<path class="st1" d="M263.4,168.2c7.3-3.9,14.6-7.9,21.8-11.8c-1.9-8.2-3.8-16.4-5.7-24.6c-8.8-0.4-17.5-0.7-26.3-1.1
			c-2-2.8-4-5.7-6-8.5c4.3-7.3,8.5-14.6,12.8-22l-17.7-18.9c-8,4.6-16,9.2-24,13.8c-2.9-1.6-5.8-3.1-8.7-4.7
			c-0.7-8.6-1.4-17.3-2.1-25.9c-8.1-1.9-16.1-3.9-24.2-5.8c-3.9,8-7.8,16-11.7,24c-3.3,0-6.5,0.1-9.8,0.1
			c-5.5-6.9-11-13.8-16.5-20.7c-8.1,3.2-16.1,6.4-24.2,9.6c1,8.6,1.9,17.1,2.9,25.7l-9.5,6.6c-8.4-3-16.7-6.1-25.1-9.1
			c-4.5,6.2-9.1,12.3-13.6,18.5c5.6,6.7,11.1,13.5,16.7,20.2c-1.7,4.1-3.4,8.3-5.1,12.4c-8.9,2-17.7,3.9-26.6,5.9
			c-0.4,7.9-0.8,15.9-1.2,23.8l25.3,9.6c0.4,4.5,0.9,9,1.3,13.6c-5.7,5.9-11.3,11.8-17,17.7c3.5,6.6,7,13.3,10.4,19.9
			c8.5-2.2,17-4.4,25.5-6.6c3.9,3.7,7.8,7.4,11.6,11.1c-1.9,8.7-3.7,17.3-5.6,26c6.5,3.6,12.9,7.2,19.4,10.8
			c6-6.8,12-13.5,18.1-20.3c5,1,10.1,1.9,15.1,2.9c3,7.7,6,15.5,9.1,23.2c7.8-0.4,15.6-0.9,23.5-1.3c1.8-8.5,3.6-17,5.4-25.4
			l13.3-5.5c6.4,4.9,12.8,9.9,19.3,14.8c6.3-4.9,12.7-9.8,19-14.7c-3.2-8.1-6.4-16.1-9.6-24.2c2.6-3.5,5.2-6.9,7.9-10.4
			c8.3,0.3,16.7,0.6,25,0.9c2.6-7.5,5.2-15.1,7.8-22.6c-7.3-4.9-14.5-9.8-21.8-14.8C262.9,176.4,263.1,172.3,263.4,168.2z
			 M106.9,181.1c-5.1-37.7,24.2-72.1,60.5-74.9c31-2.3,60,19,67.9,48.2c9.9,36.5-15.2,78.1-54.4,83.4
			C145.9,242.6,111.7,216.9,106.9,181.1z"/>
		<path class="st1" d="M382.1,399.3c7.6,3.6,15.2,7.2,22.8,10.7c5.5-6.5,11.1-13,16.6-19.4c-5-7.4-9.9-14.8-14.9-22.1
			c1.1-3.4,2.2-6.7,3.3-10.1c8.5-0.9,17.1-1.9,25.6-2.8l4.8-25.8c-8.6-3.8-17.2-7.5-25.8-11.3c-0.5-3.3-0.9-6.6-1.4-9.9
			c6.6-5.8,13.3-11.6,19.9-17.3c-3.3-7.8-6.6-15.5-9.8-23.3c-8.9,1.6-17.8,3.3-26.7,4.9c-2-2.6-4-5.3-5.9-7.9
			c2.3-8.6,4.7-17.3,7-25.9c-7.5-4.7-14.9-9.3-22.4-14c-6.4,5.9-12.8,11.9-19.2,17.8L345,239c-2.5-8.7-5.1-17.3-7.6-26
			c-7.8,0-15.5,0-23.3,0c-2.1,8.6-4.3,17.2-6.4,25.8c-4.4,1.1-8.8,2.2-13.2,3.3c-6.9-6-13.9-12.1-20.8-18.1
			c-6.7,4.4-13.4,8.9-20.2,13.3l7.4,26.5c-3.4,3.1-6.9,6.2-10.3,9.2c-8.2-1.1-16.5-2.2-24.7-3.2c-3.3,6.8-6.7,13.7-10,20.5
			c6.9,5.6,13.8,11.3,20.8,16.9c-0.7,5.4-1.4,10.8-2.1,16.2c-8.2,3.7-16.4,7.3-24.6,11c0.9,7.5,1.9,14.9,2.8,22.4
			c9.2,0.8,18.3,1.7,27.5,2.5c2.2,4.7,4.5,9.4,6.7,14.1c-4.5,7.1-9,14.2-13.5,21.3c5.1,6.1,10.1,12.3,15.2,18.4
			c8-3.6,16-7.3,24-10.9l12.5,7.6c-0.2,8.2-0.4,16.4-0.5,24.7c7.8,2.2,15.6,4.5,23.4,6.7c4.7-7.5,9.3-14.9,14-22.4
			c4.4,0.1,8.8,0.1,13.3,0.2c4.8,7,9.6,14,14.3,21c7.7-2.4,15.4-4.8,23.1-7.3c-0.4-8.9-0.7-17.8-1.1-26.7
			C375.2,403.8,378.6,401.6,382.1,399.3z M277.5,279.2c27.8-26.9,73.5-23.6,97.5,4.4c20.5,23.9,20.6,60.5,1.5,84.5
			c-23.9,30-72.9,34.5-100.9,5.7C250.7,348,251.1,304.7,277.5,279.2z"/>
	</g>
</g>
</svg>
